<svg width="440" height="440" viewBox="0 0 440 440" fill="none" xmlns="http://www.w3.org/2000/svg">
<rect width="440" height="440" rx="220" fill="#0A78DA"/>
<path d="M255.875 176.307C255.155 168.39 251.953 162.237 246.267 157.847C240.653 153.384 232.629 151.153 222.193 151.153C215.284 151.153 209.527 152.053 204.92 153.852C200.314 155.652 196.86 158.134 194.557 161.301C192.254 164.396 191.066 167.958 190.994 171.989C190.85 175.299 191.498 178.214 192.938 180.733C194.449 183.252 196.608 185.483 199.415 187.426C202.294 189.297 205.748 190.953 209.778 192.392C213.809 193.831 218.343 195.091 223.381 196.17L242.381 200.489C253.32 202.864 262.964 206.03 271.313 209.989C279.733 213.947 286.786 218.661 292.472 224.131C298.229 229.6 302.583 235.898 305.534 243.023C308.485 250.148 309.996 258.136 310.068 266.989C309.996 280.951 306.47 292.934 299.489 302.938C292.508 312.941 282.468 320.606 269.369 325.932C256.343 331.258 240.617 333.92 222.193 333.92C203.697 333.92 187.576 331.15 173.83 325.608C160.083 320.066 149.396 311.646 141.767 300.347C134.138 289.047 130.216 274.761 130 257.489H181.17C181.602 264.614 183.509 270.551 186.892 275.301C190.275 280.051 194.917 283.65 200.818 286.097C206.792 288.544 213.701 289.767 221.545 289.767C228.742 289.767 234.86 288.795 239.898 286.852C245.008 284.909 248.93 282.21 251.665 278.756C254.4 275.301 255.803 271.343 255.875 266.881C255.803 262.706 254.508 259.144 251.989 256.193C249.47 253.17 245.583 250.58 240.33 248.42C235.148 246.189 228.527 244.138 220.466 242.267L197.364 236.869C178.22 232.479 163.142 225.39 152.131 215.602C141.119 205.742 135.65 192.428 135.722 175.659C135.65 161.985 139.32 150.002 146.733 139.71C154.146 129.419 164.402 121.394 177.5 115.636C190.598 109.879 205.532 107 222.301 107C239.43 107 254.292 109.915 266.886 115.744C279.553 121.502 289.377 129.598 296.358 140.034C303.339 150.47 306.902 162.561 307.045 176.307H255.875Z" fill="white"/>
</svg>
