<svg width="290" height="89" viewBox="0 0 290 89" fill="none" xmlns="http://www.w3.org/2000/svg">
<g clip-path="url(#clip0_2952_337)">
<mask id="mask0_2952_337" style="mask-type:luminance" maskUnits="userSpaceOnUse" x="0" y="0" width="290" height="89">
<path d="M289.813 0.693359H0V88.6934H289.813V0.693359Z" fill="white"/>
</mask>
<g mask="url(#mask0_2952_337)">
<mask id="mask1_2952_337" style="mask-type:luminance" maskUnits="userSpaceOnUse" x="0" y="0" width="88" height="89">
<path d="M88 0.693359H0V88.6934H88V0.693359Z" fill="white"/>
</mask>
<g mask="url(#mask1_2952_337)">
<path d="M62.895 15.3035C61.9828 15.3035 61.101 14.9088 60.5331 14.1965C60.3653 13.9906 60.1888 13.7889 60.0034 13.5958C59.4144 12.9908 58.7385 12.4716 57.9987 12.0554C56.7337 11.3474 55.2752 10.9398 53.7219 10.9398C50.6886 10.9398 48.0168 12.4802 46.4506 14.8187L41.1456 21.6925L40.9434 21.9543L37.6605 26.2064L37.1227 26.9016L34.184 30.7118L28.5305 38.0319C28.2551 38.3838 27.8808 38.6455 27.4549 38.7785L16.3457 42.2026C15.7649 42.3785 15.1797 41.9494 15.1797 41.3444V30.0682C15.1797 29.5876 15.3389 29.1242 15.6315 28.7466L23.4492 18.6761L32.0371 7.61872C32.0371 7.61872 32.0457 7.60154 32.0543 7.59297L32.4544 7.07805C32.4932 7.03517 32.5276 6.98794 32.562 6.94506C35.7201 3.12624 40.5002 0.693359 45.8526 0.693359C46.3732 0.693359 46.8938 0.714813 47.4015 0.766303C55.301 1.46571 61.6689 7.48139 62.878 15.2006C62.8821 15.2349 62.8862 15.2692 62.895 15.3035Z" fill="white"/>
<path d="M73.3507 63.3608C73.3507 62.4509 73.7462 61.5715 74.4607 61.0054C74.6672 60.8376 74.869 60.6622 75.0626 60.4774C75.6698 59.8895 76.1902 59.2159 76.6073 58.4779C77.3172 57.2164 77.7261 55.7618 77.7261 54.2128C77.7261 51.1878 76.1814 48.5232 73.8365 46.9614L66.9438 41.6708L66.6815 41.4692L62.4176 38.1953L61.7207 37.6589L57.9 34.7283L50.5599 29.0902C50.2071 28.8156 49.9446 28.4423 49.8112 28.0175L46.3778 16.9387C46.2014 16.3594 46.6317 15.7759 47.2383 15.7759H58.5454C59.0273 15.7759 59.4919 15.9346 59.8703 16.2264L69.9686 24.0228L81.0566 32.5872C81.0566 32.5872 81.0736 32.5958 81.0824 32.6044L81.5987 33.0034C81.6415 33.042 81.689 33.0763 81.7319 33.1107C85.561 36.2644 88.0004 41.0315 88.0004 46.3693C88.0004 46.8885 87.9793 47.4076 87.9277 47.9139C87.226 55.7918 81.1939 62.1423 73.454 63.3479C73.4194 63.352 73.3848 63.3567 73.3507 63.3649V63.3608Z" fill="white"/>
<path d="M25.1354 74.0832C26.0475 74.0832 26.9296 74.478 27.4975 75.1902C27.6653 75.3961 27.8417 75.598 28.0267 75.791C28.6161 76.3958 29.2917 76.915 30.0317 77.3316C31.2967 78.0397 32.7552 78.4468 34.3084 78.4468C37.3417 78.4468 40.0136 76.9068 41.5797 74.5684L46.8848 67.6944L47.087 67.4327L50.3699 63.1806L50.9077 62.4854L53.8463 58.6751L59.4999 51.355C59.775 51.0031 60.1493 50.7414 60.5752 50.6084L71.6849 47.1843C72.2657 47.0084 72.8506 47.4375 72.8506 48.0425V59.3187C72.8506 59.799 72.6916 60.2625 72.3989 60.6403L64.581 70.711L55.9933 81.7679C55.9933 81.7679 55.9847 81.7855 55.976 81.7937L55.5759 82.3088C55.5372 82.3517 55.5028 82.3992 55.4683 82.442C52.306 86.2606 47.5259 88.6935 42.1735 88.6935C41.6529 88.6935 41.1323 88.6718 40.6246 88.6208C32.7251 87.9209 26.3573 81.9052 25.1483 74.1864C25.144 74.1518 25.1397 74.1178 25.1311 74.0832H25.1354Z" fill="white"/>
<path d="M14.6502 25.9316C14.6502 26.8413 14.2544 27.7209 13.5401 28.2873C13.3336 28.4547 13.1314 28.6306 12.9378 28.8151C12.3311 29.4029 11.8105 30.0766 11.3931 30.8146C10.6832 32.0761 10.2745 33.5307 10.2745 35.0797C10.2745 38.1047 11.8191 40.7693 14.164 42.3311L21.0566 47.6216L21.3191 47.8233L25.5829 51.0972L26.28 51.6336L30.1006 54.5641L37.4408 60.2023C37.7936 60.4769 38.056 60.85 38.1894 61.2747L41.6228 72.3539C41.7992 72.933 41.369 73.5167 40.7624 73.5167H29.4552C28.9734 73.5167 28.5087 73.3577 28.1301 73.0661L18.032 65.2699L6.94431 56.7053C6.94431 56.7053 6.92712 56.6967 6.9185 56.6881L6.40218 56.2891C6.35917 56.2505 6.31183 56.2161 6.26883 56.1818C2.43954 53.0324 0 48.2653 0 42.9276C0 42.4083 0.0215127 41.8891 0.0731433 41.3829C0.774459 33.5049 6.80662 27.1545 14.5469 25.9488C14.5813 25.9445 14.6157 25.9403 14.6502 25.9316Z" fill="white"/>
</g>
<path d="M122.639 31.8615C122.31 31.8615 122.146 32.0258 122.146 32.3543V42.4732H110.023V32.3543C110.023 32.0258 109.859 31.8615 109.53 31.8615H106.278C105.949 31.8615 105.785 32.0258 105.785 32.3543V56.4687C105.785 56.8301 105.949 56.9943 106.278 56.9943H109.53C109.859 56.9943 110.023 56.8301 110.023 56.4687V46.1856H122.146V56.4687C122.146 56.8301 122.31 56.9943 122.639 56.9943H125.891C126.22 56.9943 126.384 56.8301 126.384 56.4687V32.3543C126.384 32.0258 126.22 31.8615 125.891 31.8615H122.639ZM147.681 31.8615C147.287 31.8615 147.189 31.9601 147.189 32.3543V44.4772C147.189 51.6721 146.006 53.479 141.308 53.479C136.643 53.479 135.46 51.6721 135.46 44.4772V32.3543C135.46 31.9601 135.329 31.8615 134.967 31.8615H131.715C131.353 31.8615 131.222 31.9601 131.222 32.3543V44.4772C131.222 54.6289 133.259 57.1586 141.308 57.1586C149.357 57.1586 151.394 54.6289 151.394 44.4772V32.3543C151.394 31.9601 151.262 31.8615 150.901 31.8615H147.681ZM158.75 31.8615C158.421 31.8615 158.257 32.0258 158.257 32.3543V35.0483C158.257 35.3768 158.421 35.5411 158.75 35.5411H166.241V44.6086C166.306 51.5078 165.222 53.479 159.933 53.479H154.709C154.381 53.479 154.216 53.6433 154.216 53.9718V56.0744C154.216 56.5015 154.446 56.6987 154.84 56.7644C156.483 57.0272 157.83 57.1586 159.933 57.1586C168.277 57.1586 170.479 54.3004 170.479 44.6086V32.3543C170.479 32.0258 170.314 31.8615 169.986 31.8615H158.75ZM177.84 31.8615C177.511 31.8615 177.347 32.0258 177.347 32.3543V35.0483C177.347 35.3768 177.511 35.5411 177.84 35.5411H185.33V44.6086C185.396 51.5078 184.312 53.479 179.022 53.479H173.799C173.47 53.479 173.306 53.6433 173.306 53.9718V56.0744C173.306 56.5015 173.536 56.6987 173.93 56.7644C175.573 57.0272 176.92 57.1586 179.022 57.1586C187.367 57.1586 189.568 54.3004 189.568 44.6086V32.3543C189.568 32.0258 189.404 31.8615 189.075 31.8615H177.84ZM203.171 31.6973C199.754 31.6973 199.163 32.0915 198.178 35.5411L192.33 56.4687C192.264 56.8629 192.362 56.9943 192.724 56.9943H196.108C196.371 56.9943 196.436 56.8629 196.535 56.4687L198.506 49.4052H207.869L209.808 56.4687C209.906 56.8629 209.972 56.9943 210.268 56.9943H213.619C213.98 56.9943 214.079 56.8629 214.013 56.4687L208.329 35.5411C207.376 32.0915 206.851 31.6973 203.171 31.6973ZM203.171 35.2783C204.091 35.2783 204.124 35.4425 204.453 36.6253L206.917 45.8571H199.492L202.021 36.6253C202.35 35.4425 202.416 35.2783 203.171 35.2783ZM215.57 31.8615C215.242 31.8615 215.078 32.0258 215.078 32.3543V35.0483C215.078 35.3768 215.242 35.5411 215.57 35.5411H222.732V56.5015C222.732 56.8301 222.897 56.9943 223.225 56.9943H226.445C226.773 56.9943 226.938 56.8301 226.938 56.5015V35.5411H234.133C234.461 35.5411 234.625 35.3768 234.625 35.0483V32.3543C234.625 32.0258 234.461 31.8615 234.133 31.8615H215.57ZM238.962 52.6248C237.418 52.6248 236.531 53.4462 236.531 54.8917C236.531 56.3373 237.418 57.1586 238.962 57.1586C240.473 57.1586 241.327 56.3373 241.327 54.8917C241.327 53.4462 240.473 52.6248 238.962 52.6248ZM261.545 31.8615C261.151 31.8615 261.052 31.9601 261.052 32.3543V44.4772C261.052 51.6721 259.87 53.479 255.172 53.479C250.506 53.479 249.324 51.6721 249.324 44.4772V32.3543C249.324 31.9601 249.192 31.8615 248.831 31.8615H245.578C245.217 31.8615 245.086 31.9601 245.086 32.3543V44.4772C245.086 54.6289 247.123 57.1586 255.172 57.1586C263.221 57.1586 265.258 54.6289 265.258 44.4772V32.3543C265.258 31.9601 265.126 31.8615 264.765 31.8615H261.545ZM269.427 31.8615C269.066 31.8615 268.901 31.9929 268.901 32.3543L268.934 35.0812C268.934 35.3768 269.098 35.5411 269.46 35.5411H282.667L268.77 53.5119C268.573 53.7747 268.54 53.9061 268.54 54.1361L268.573 56.5015C268.573 56.8301 268.737 56.9943 269.066 56.9943H287.989C288.318 56.9943 288.515 56.8301 288.515 56.5015V53.8076C288.515 53.479 288.318 53.3148 287.989 53.3148H274.092L287.989 35.3768C288.153 35.1469 288.219 35.0155 288.219 34.7526V32.3543C288.219 31.9929 288.055 31.8615 287.726 31.8615H269.427Z" fill="white"/>
</g>
</g>
<defs>
<clipPath id="clip0_2952_337">
<rect width="289.813" height="88" fill="white" transform="translate(0 0.693359)"/>
</clipPath>
</defs>
</svg>
