<svg xmlns="http://www.w3.org/2000/svg" width="191" height="57" viewBox="0 0 191 57" fill="none">
  <g clip-path="url(#clip0_2902_433)">
    <mask id="mask0_2902_433" style="mask-type:luminance" maskUnits="userSpaceOnUse" x="0" y="0" width="191" height="58">
      <path d="M191 0.00195312H0V57.9979H191V0.00195312Z" fill="white"/>
    </mask>
    <g mask="url(#mask0_2902_433)">
      <path d="M191 0.00195312H0V57.9979H191V0.00195312Z" fill="white"/>
      <mask id="mask1_2902_433" style="mask-type:luminance" maskUnits="userSpaceOnUse" x="0" y="0" width="58" height="58">
        <path d="M57.996 0.00195312H0V57.9979H57.996V0.00195312Z" fill="white"/>
      </mask>
      <g mask="url(#mask1_2902_433)">
        <path d="M41.4505 9.63071C40.8492 9.63071 40.2681 9.37054 39.8939 8.90112C39.7833 8.76541 39.6669 8.63249 39.5447 8.50524C39.1565 8.1065 38.7111 7.76432 38.2235 7.49004C37.3899 7.02345 36.4286 6.75481 35.405 6.75481C33.4059 6.75481 31.645 7.77001 30.6128 9.31115L27.1166 13.8413L26.9833 14.0139L24.8198 16.8162L24.4654 17.2743L22.5286 19.7855L18.8027 24.6097C18.6212 24.8416 18.3745 25.0141 18.0938 25.1018L10.7724 27.3584C10.3896 27.4743 10.0039 27.1915 10.0039 26.7928V19.3613C10.0039 19.0445 10.1088 18.7391 10.3017 18.4903L15.4539 11.8534L21.1137 4.56608C21.1137 4.56608 21.1194 4.55475 21.1251 4.54911L21.3887 4.20975C21.4143 4.18149 21.437 4.15036 21.4597 4.1221C23.5409 1.60533 26.6913 0.00195312 30.2187 0.00195312C30.5618 0.00195312 30.9049 0.0160923 31.2395 0.0500264C36.4457 0.510964 40.6424 4.47557 41.4393 9.56286C41.442 9.58547 41.4447 9.60809 41.4505 9.63071Z" fill="#084E8C"/>
        <path d="M48.341 41.3023C48.341 40.7026 48.6016 40.123 49.0725 39.7499C49.2086 39.6393 49.3416 39.5237 49.4692 39.4019C49.8694 39.0145 50.2123 38.5706 50.4872 38.0842C50.9551 37.2528 51.2246 36.2942 51.2246 35.2733C51.2246 33.2797 50.2065 31.5236 48.6611 30.4943L44.1185 27.0076L43.9457 26.8747L41.1356 24.717L40.6763 24.3635L38.1583 22.4322L33.3208 18.7164C33.0883 18.5354 32.9153 18.2894 32.8274 18.0094L30.5646 10.708C30.4484 10.3262 30.7319 9.94165 31.1318 9.94165H38.5836C38.9012 9.94165 39.2074 10.0463 39.4568 10.2386L46.112 15.3767L53.4195 21.0211C53.4195 21.0211 53.4307 21.0267 53.4365 21.0324L53.7768 21.2954C53.805 21.3208 53.8363 21.3434 53.8645 21.3661C56.3881 23.4445 57.9958 26.5862 57.9958 30.1041C57.9958 30.4462 57.9819 30.7884 57.9478 31.1221C57.4854 36.314 53.51 40.4992 48.4091 41.2938C48.3862 41.2965 48.3634 41.2996 48.341 41.305V41.3023Z" fill="#084E8C"/>
        <path d="M16.5651 48.369C17.1662 48.369 17.7475 48.6292 18.1218 49.0986C18.2324 49.2343 18.3486 49.3673 18.4706 49.4945C18.8591 49.8931 19.3043 50.2353 19.792 50.5098C20.6256 50.9765 21.5869 51.2448 22.6105 51.2448C24.6096 51.2448 26.3705 50.2299 27.4026 48.6888L30.8989 44.1585L31.0322 43.9861L33.1957 41.1837L33.5502 40.7255L35.4869 38.2144L39.2128 33.3901C39.3941 33.1582 39.6408 32.9857 39.9215 32.8981L47.2433 30.6415C47.6261 30.5255 48.0116 30.8083 48.0116 31.207V38.6386C48.0116 38.9551 47.9068 39.2606 47.7139 39.5096L42.5615 46.1466L36.9018 53.4336C36.9018 53.4336 36.8961 53.4452 36.8905 53.4506L36.6268 53.7901C36.6012 53.8183 36.5786 53.8496 36.5559 53.8779C34.4717 56.3945 31.3214 57.9979 27.7939 57.9979C27.4508 57.9979 27.1077 57.9836 26.7731 57.9499C21.567 57.4887 17.3704 53.5241 16.5736 48.4371C16.5708 48.4143 16.5679 48.3918 16.5623 48.369H16.5651Z" fill="#084E8C"/>
        <path d="M9.65513 16.6353C9.65513 17.2348 9.39426 17.8145 8.92353 18.1878C8.78743 18.298 8.65415 18.414 8.52656 18.5356C8.12674 18.923 7.78364 19.3669 7.50858 19.8533C7.04071 20.6847 6.77134 21.6434 6.77134 22.6642C6.77134 24.6578 7.78932 26.4139 9.33472 27.4432L13.8773 30.9299L14.0503 31.0629L16.8603 33.2205L17.3197 33.574L19.8377 35.5054L24.6751 39.2212C24.9077 39.4021 25.0806 39.648 25.1685 39.9279L27.4313 47.2296C27.5476 47.6112 27.264 47.9959 26.8642 47.9959H19.4123C19.0947 47.9959 18.7885 47.8912 18.539 47.699L11.8839 42.561L4.57661 36.9165C4.57661 36.9165 4.56529 36.9108 4.5596 36.9051L4.21932 36.6422C4.19098 36.6167 4.15978 36.5941 4.13144 36.5715C1.60777 34.4958 0 31.3541 0 27.8363C0 27.4941 0.0141778 27.152 0.0482047 26.8183C0.510403 21.6264 4.48587 17.4412 9.58708 16.6466C9.60974 16.6438 9.63243 16.6409 9.65513 16.6353Z" fill="#084E8C"/>
      </g>
      <path d="M80.8237 21.1102C80.6072 21.1102 80.4989 21.2185 80.4989 21.435V28.1038H72.5094V21.435C72.5094 21.2185 72.4011 21.1102 72.1846 21.1102H70.0411C69.8246 21.1102 69.7163 21.2185 69.7163 21.435V37.3274C69.7163 37.5656 69.8246 37.6739 70.0411 37.6739H72.1846C72.4011 37.6739 72.5094 37.5656 72.5094 37.3274V30.5504H80.4989V37.3274C80.4989 37.5656 80.6072 37.6739 80.8237 37.6739H82.9672C83.1837 37.6739 83.292 37.5656 83.292 37.3274V21.435C83.292 21.2185 83.1837 21.1102 82.9672 21.1102H80.8237ZM97.3278 21.1102C97.068 21.1102 97.003 21.1752 97.003 21.435V29.4245C97.003 34.1663 96.2236 35.3571 93.1273 35.3571C90.0528 35.3571 89.2733 34.1663 89.2733 29.4245V21.435C89.2733 21.1752 89.1867 21.1102 88.9485 21.1102H86.805C86.5668 21.1102 86.4802 21.1752 86.4802 21.435V29.4245C86.4802 36.1149 87.8226 37.7821 93.1273 37.7821C98.432 37.7821 99.7744 36.1149 99.7744 29.4245V21.435C99.7744 21.1752 99.6878 21.1102 99.4497 21.1102H97.3278ZM104.623 21.1102C104.406 21.1102 104.298 21.2185 104.298 21.435V23.2104C104.298 23.427 104.406 23.5352 104.623 23.5352H109.559V29.5111C109.602 34.058 108.888 35.3571 105.402 35.3571H101.959C101.743 35.3571 101.635 35.4654 101.635 35.6819V37.0676C101.635 37.3491 101.786 37.479 102.046 37.5223C103.129 37.6955 104.016 37.7821 105.402 37.7821C110.902 37.7821 112.352 35.8984 112.352 29.5111V21.435C112.352 21.2185 112.244 21.1102 112.027 21.1102H104.623ZM117.203 21.1102C116.987 21.1102 116.879 21.2185 116.879 21.435V23.2104C116.879 23.427 116.987 23.5352 117.203 23.5352H122.14V29.5111C122.183 34.058 121.469 35.3571 117.983 35.3571H114.54C114.324 35.3571 114.215 35.4654 114.215 35.6819V37.0676C114.215 37.3491 114.367 37.479 114.627 37.5223C115.709 37.6955 116.597 37.7821 117.983 37.7821C123.482 37.7821 124.933 35.8984 124.933 29.5111V21.435C124.933 21.2185 124.825 21.1102 124.608 21.1102H117.203ZM133.898 21.002C131.646 21.002 131.257 21.2618 130.607 23.5352L126.753 37.3274C126.71 37.5872 126.775 37.6739 127.013 37.6739H129.243C129.416 37.6739 129.459 37.5872 129.524 37.3274L130.824 32.6723H136.994L138.272 37.3274C138.337 37.5872 138.38 37.6739 138.575 37.6739H140.783C141.022 37.6739 141.087 37.5872 141.043 37.3274L137.297 23.5352C136.67 21.2618 136.323 21.002 133.898 21.002ZM133.898 23.362C134.504 23.362 134.526 23.4703 134.743 24.2497L136.366 30.3339H131.473L133.14 24.2497C133.357 23.4703 133.4 23.362 133.898 23.362ZM142.07 21.1102C141.853 21.1102 141.745 21.2185 141.745 21.435V23.2104C141.745 23.427 141.853 23.5352 142.07 23.5352H146.79V37.3491C146.79 37.5656 146.898 37.6739 147.115 37.6739H149.236C149.453 37.6739 149.561 37.5656 149.561 37.3491V23.5352H154.303C154.52 23.5352 154.628 23.427 154.628 23.2104V21.435C154.628 21.2185 154.52 21.1102 154.303 21.1102H142.07ZM157.486 34.7942C156.468 34.7942 155.884 35.3355 155.884 36.2881C155.884 37.2408 156.468 37.7821 157.486 37.7821C158.482 37.7821 159.045 37.2408 159.045 36.2881C159.045 35.3355 158.482 34.7942 157.486 34.7942ZM172.369 21.1102C172.109 21.1102 172.044 21.1752 172.044 21.435V29.4245C172.044 34.1663 171.265 35.3571 168.169 35.3571C165.094 35.3571 164.315 34.1663 164.315 29.4245V21.435C164.315 21.1752 164.228 21.1102 163.99 21.1102H161.846C161.608 21.1102 161.522 21.1752 161.522 21.435V29.4245C161.522 36.1149 162.864 37.7821 168.169 37.7821C173.473 37.7821 174.816 36.1149 174.816 29.4245V21.435C174.816 21.1752 174.729 21.1102 174.491 21.1102H172.369ZM177.564 21.1102C177.325 21.1102 177.217 21.1968 177.217 21.435L177.239 23.2321C177.239 23.427 177.347 23.5352 177.585 23.5352H186.289L177.131 35.3788C177.001 35.552 176.979 35.6386 176.979 35.7901L177.001 37.3491C177.001 37.5656 177.109 37.6739 177.325 37.6739H189.797C190.013 37.6739 190.143 37.5656 190.143 37.3491V35.5736C190.143 35.3571 190.013 35.2489 189.797 35.2489H180.638L189.797 23.427C189.905 23.2754 189.948 23.1888 189.948 23.0156V21.435C189.948 21.1968 189.84 21.1102 189.624 21.1102H177.564Z" fill="#181818"/>
    </g>
  </g>
  <defs>
    <clipPath id="clip0_2902_433">
      <rect width="191" height="57.996" fill="white" transform="translate(0 0.00195312)"/>
    </clipPath>
  </defs>
</svg>