<svg width="34" height="34" viewBox="0 0 34 34" xmlns="http://www.w3.org/2000/svg">
<path fill-rule="evenodd" clip-rule="evenodd" d="M9.25826 7.07947H29.7501C31.3149 7.07947 32.5834 8.34799 32.5834 9.9128V24.0795C32.5834 25.6443 31.3149 26.9128 29.7501 26.9128H9.25826C8.31092 26.9128 7.42627 26.4393 6.90078 25.6511L1.65468 17.782C1.33744 17.3061 1.33744 16.6862 1.65468 16.2103L6.90078 8.34115C7.42627 7.55292 8.31092 7.07947 9.25826 7.07947ZM4.53604 16.9961L9.25826 24.0795H29.7501V9.9128H9.25826L4.53604 16.9961ZM11.3334 16.9961C11.3334 17.7785 10.6992 18.4128 9.91675 18.4128C9.13434 18.4128 8.50008 17.7785 8.50008 16.9961C8.50008 16.2137 9.13434 15.5795 9.91675 15.5795C10.6992 15.5795 11.3334 16.2137 11.3334 16.9961Z" fill="blue"/>
</svg>
