<svg width="34" height="34" viewBox="0 0 34 34" fill="none" xmlns="http://www.w3.org/2000/svg">
<path fill-rule="evenodd" clip-rule="evenodd" d="M18.4167 9.91272V4.32387C24.7917 5.02858 29.7501 10.4333 29.7501 16.9961C29.7501 24.0377 24.0417 29.7461 17.0001 29.7461C9.95845 29.7461 4.25008 24.0377 4.25008 16.9961C4.25008 13.5589 5.61456 10.3415 8.00141 7.96353L6.00168 5.95633C3.08649 8.86068 1.41675 12.7979 1.41675 16.9961C1.41675 25.6025 8.39364 32.5794 17.0001 32.5794C25.6065 32.5794 32.5834 25.6025 32.5834 16.9961C32.5834 8.38962 25.6065 1.41272 17.0001 1.41272H15.5834V9.91272H18.4167ZM17.0001 14.1627C16.7463 14.1627 16.5003 14.1961 16.2662 14.2587L10.9185 8.91099L8.91501 10.9145L14.2627 16.2622C14.2001 16.4962 14.1667 16.7422 14.1667 16.9961C14.1667 18.5609 15.4353 19.8294 17.0001 19.8294C18.5649 19.8294 19.8334 18.5609 19.8334 16.9961C19.8334 15.4312 18.5649 14.1627 17.0001 14.1627Z" fill="#084E8C"/>
</svg>
