<svg width="34" height="34" viewBox="0 0 34 34" fill="none" xmlns="http://www.w3.org/2000/svg">
<path fill-rule="evenodd" clip-rule="evenodd" d="M17.0001 32.5794C8.39364 32.5794 1.41675 25.6025 1.41675 16.9961C1.41675 8.38962 8.39364 1.41272 17.0001 1.41272C25.6065 1.41272 32.5834 8.38962 32.5834 16.9961C32.5834 25.6025 25.6065 32.5794 17.0001 32.5794ZM17.0001 29.7461C24.0417 29.7461 29.7501 24.0377 29.7501 16.9961C29.7501 9.95442 24.0417 4.24605 17.0001 4.24605C9.95845 4.24605 4.25008 9.95442 4.25008 16.9961C4.25008 24.0377 9.95845 29.7461 17.0001 29.7461ZM18.4167 21.2461C18.4167 23.5933 20.3195 25.4961 22.6667 25.4961C25.014 25.4961 26.9167 23.5933 26.9167 21.2461C26.9167 18.8988 25.014 16.9961 22.6667 16.9961C20.3195 16.9961 18.4167 18.8988 18.4167 21.2461ZM22.6667 22.6627C23.4492 22.6627 24.0834 22.0285 24.0834 21.2461C24.0834 20.4636 23.4492 19.8294 22.6667 19.8294C21.8843 19.8294 21.2501 20.4636 21.2501 21.2461C21.2501 22.0285 21.8843 22.6627 22.6667 22.6627ZM7.08342 12.7461C7.08342 15.0933 8.9862 16.9961 11.3334 16.9961C13.6806 16.9961 15.5834 15.0933 15.5834 12.7461C15.5834 10.3988 13.6806 8.49605 11.3334 8.49605C8.9862 8.49605 7.08342 10.3988 7.08342 12.7461ZM11.3334 14.1627C12.1158 14.1627 12.7501 13.5285 12.7501 12.7461C12.7501 11.9636 12.1158 11.3294 11.3334 11.3294C10.551 11.3294 9.91675 11.9636 9.91675 12.7461C9.91675 13.5285 10.551 14.1627 11.3334 14.1627ZM14.334 25.4961L22.834 8.49605H19.6662L11.1662 25.4961H14.334Z" fill="#084E8C"/>
</svg>
