<svg width="35" height="34" viewBox="0 0 35 34" fill="none" xmlns="http://www.w3.org/2000/svg">
<path fill-rule="evenodd" clip-rule="evenodd" d="M17.75 32.5834C9.25 28.7968 5 25.019 5 21.2501V7.08341C5 5.99599 5.41735 5.74327 6.5724 5.04383L6.57241 5.04382C6.92213 4.83205 7.33947 4.57932 7.83333 4.25008C8.06254 4.09728 12.8812 1.41675 17.75 1.41675C21.9933 1.41675 25.5417 2.83341 27.6667 4.25008C28.1605 4.57933 28.5779 4.83205 28.9276 5.04383C30.0827 5.74327 30.5 5.99599 30.5 7.08341C30.5279 7.39113 30.5142 13.9344 30.5054 18.1244L30.5054 18.1259C30.5024 19.5547 30.5 20.7097 30.5 21.2501C30.5 25.0279 26.25 28.8056 17.75 32.5834ZM27.6667 21.2501C27.6667 20.9238 27.6675 20.3771 27.6693 19.4859L27.675 16.7188C27.6768 15.8236 27.6783 15.0554 27.6795 14.3223C27.6847 11.1601 27.6833 8.44599 27.6802 7.60657L27.4856 7.48579L27.4856 7.48577C27.0275 7.20158 26.4304 6.83116 26.095 6.60756C24.0036 5.2133 20.9519 4.25008 17.75 4.25008C14.6873 4.25008 10.7072 5.73939 9.40498 6.60756C9.06958 6.83116 8.47251 7.20157 8.0144 7.48577L8.01438 7.48578L7.83333 7.59814V21.2501C7.83333 23.3871 10.9912 26.3058 17.7513 29.4696C24.5106 26.3129 27.6667 23.3953 27.6667 21.2501ZM22.4149 11.7483L16.3333 17.8299L13.0851 14.5817L11.0816 16.5851L16.3333 21.8369L24.4184 13.7518L22.4149 11.7483Z" fill="white"/>
</svg>
